<?xml version="1.0" encoding="utf-8"?>
<!-- Generator: Adobe Illustrator 25.3.1, SVG Export Plug-In . SVG Version: 6.00 Build 0)  -->
<svg version="1.1" id="Layer_1" xmlns="http://www.w3.org/2000/svg" xmlns:xlink="http://www.w3.org/1999/xlink" x="0px" y="0px"
	 viewBox="0 0 768 1024" xml:space="preserve">
<path class="st0" d="M420.8,503.3c-31.9-29.9-81.6-31.8-124-20.9c-26.5,6.8-53.4,19.1-67.8,42.4c-24.1,39.1-1.9,92.2,33.3,121.7
	s80.4,43.5,120.5,65.9c31.6,17.6,89,33.9,112.2,63.6l0,0c3.5-37.7,43.1-84.7,60.8-116.7c22.2-40.1,53.3-75.9,67.7-119.5
	c14.3-43.6,5.2-100.5-35.9-121c-24.5-12.2-53.9-8.5-79.9-0.3c-41.7,13.1-83,40.9-94.3,83.1"/>
<ellipse cx="155.3" cy="482.8" rx="63.6" ry="81.7"/>
<ellipse cx="274.6" cy="359.8" rx="71.6" ry="91.9"/>
<ellipse transform="matrix(0.9312 -0.3644 0.3644 0.9312 -81.8832 185.9604)" cx="451.8" cy="309.9" rx="77.2" ry="92.4"/>
<ellipse transform="matrix(0.9681 -0.2506 0.2506 0.9681 -63.9986 165.0173)" cx="616" cy="333.8" rx="60" ry="77.4"/>
</svg>
